<?xml version="1.0" standalone="no"?>
<!DOCTYPE svg PUBLIC "-//W3C//DTD SVG 20010904//EN"
 "http://www.w3.org/TR/2001/REC-SVG-20010904/DTD/svg10.dtd">
<svg version="1.0" xmlns="http://www.w3.org/2000/svg"
 width="305.000000pt" height="305.000000pt" viewBox="0 0 305.000000 305.000000"
 preserveAspectRatio="xMidYMid meet">

<g transform="translate(0.000000,305.000000) scale(0.100000,-0.100000)"
fill="#000000" stroke="none">
<path d="M1372 3015 c-137 -18 -199 -31 -312 -67 -520 -166 -916 -616 -1017
-1158 -25 -132 -24 -420 1 -545 87 -440 348 -806 731 -1028 567 -329 1301
-241 1778 213 243 231 392 511 451 850 36 202 32 335 -16 559 -73 344 -276
663 -558 875 -229 173 -459 263 -765 300 -150 18 -155 18 -293 1z m411 -270
c501 -113 885 -512 972 -1009 20 -116 20 -329 -1 -437 -49 -258 -170 -487
-354 -669 -188 -186 -443 -314 -694 -349 -249 -35 -526 8 -738 115 -246 124
-473 356 -583 597 -216 475 -124 1019 237 1393 202 209 449 335 743 378 63 9
352 -4 418 -19z"/>
<path d="M964 2345 c-216 -47 -364 -233 -364 -458 0 -98 18 -167 67 -257 51
-94 117 -171 326 -383 224 -226 336 -369 458 -585 l47 -83 52 86 c108 179 256
359 415 506 358 330 446 445 477 627 24 140 -29 300 -132 403 -176 177 -445
184 -635 17 -60 -53 -105 -128 -131 -217 -20 -68 -23 -73 -28 -46 -27 126 -61
191 -137 267 -68 68 -154 112 -249 127 -79 13 -89 13 -166 -4z m596 -675 l0
-160 155 0 155 0 0 -45 0 -45 -155 0 -155 0 0 -160 0 -160 -45 0 -45 0 0 160
0 160 -155 0 -155 0 0 45 0 45 155 0 155 0 0 160 0 160 45 0 45 0 0 -160z"/>
</g>
</svg>
