<?xml version="1.0" standalone="no"?>
<!DOCTYPE svg PUBLIC "-//W3C//DTD SVG 20010904//EN"
 "http://www.w3.org/TR/2001/REC-SVG-20010904/DTD/svg10.dtd">
<svg version="1.0" xmlns="http://www.w3.org/2000/svg"
 width="289.000000pt" height="289.000000pt" viewBox="0 0 289.000000 289.000000"
 preserveAspectRatio="xMidYMid meet">

<g transform="translate(0.000000,289.000000) scale(0.100000,-0.100000)"
fill="#000000" stroke="none">
<path d="M1235 2850 c-407 -71 -742 -284 -961 -611 -382 -571 -307 -1322 182
-1804 192 -189 445 -325 714 -382 67 -14 129 -18 290 -18 190 1 213 3 315 28
431 108 760 372 951 762 102 209 144 390 144 625 0 368 -137 709 -392 976
-117 122 -233 208 -380 283 -270 138 -585 190 -863 141z m450 -245 c239 -50
440 -159 613 -335 137 -140 249 -336 299 -527 31 -120 43 -358 23 -481 -72
-456 -425 -845 -867 -958 -559 -142 -1120 119 -1368 639 -86 179 -122 359
-112 562 28 560 440 1019 997 1110 106 18 306 13 415 -10z"/>
<path d="M1377 2162 c-81 -139 -167 -244 -348 -425 -259 -258 -305 -335 -297
-497 8 -141 72 -241 196 -302 59 -29 76 -33 147 -33 65 1 91 6 136 27 65 30
129 84 161 136 l23 37 7 -40 c17 -89 -13 -278 -57 -365 -14 -27 -25 -51 -25
-52 0 -2 49 -2 110 0 l110 3 -20 27 c-43 58 -62 140 -67 285 -3 78 -2 137 3
137 5 0 18 -16 29 -36 49 -92 169 -157 290 -157 134 0 241 65 305 185 28 53
35 76 38 144 9 167 -35 241 -299 504 -191 189 -262 275 -348 418 l-49 81 -45
-77z m223 -687 l0 -55 -165 0 -165 0 0 55 0 55 165 0 165 0 0 -55z"/>
</g>
</svg>
