<?xml version="1.0" standalone="no"?>
<!DOCTYPE svg PUBLIC "-//W3C//DTD SVG 20010904//EN"
 "http://www.w3.org/TR/2001/REC-SVG-20010904/DTD/svg10.dtd">
<svg version="1.0" xmlns="http://www.w3.org/2000/svg"
 width="317.000000pt" height="315.000000pt" viewBox="0 0 317.000000 315.000000"
 preserveAspectRatio="xMidYMid meet">

<g transform="translate(0.000000,315.000000) scale(0.100000,-0.100000)"
fill="#000000" stroke="none">
<path d="M1450 3129 c-501 -62 -896 -296 -1157 -687 -476 -713 -281 -1684 432
-2158 244 -163 574 -264 860 -264 243 0 545 80 760 202 395 223 669 599 767
1052 32 149 32 455 0 606 -47 219 -117 386 -239 570 -92 138 -253 303 -388
399 -106 74 -293 168 -420 209 -177 59 -457 91 -615 71z m377 -278 c132 -26
207 -52 338 -116 573 -283 853 -955 650 -1562 -68 -205 -161 -352 -319 -509
-115 -114 -219 -190 -343 -250 -364 -176 -785 -173 -1148 9 -129 64 -223 133
-335 246 -189 190 -300 395 -357 661 -25 116 -25 381 0 497 113 531 522 932
1046 1027 117 22 351 20 468 -3z"/>
<path d="M1185 2143 c-230 -296 -418 -543 -418 -548 0 -9 708 -1005 782 -1101
16 -21 28 -6 436 519 231 298 419 546 419 553 -1 12 -753 1065 -784 1097 -16
17 -36 -7 -435 -520z m575 -518 l0 -55 -170 0 -170 0 0 55 0 55 170 0 170 0 0
-55z"/>
</g>
</svg>
