<?xml version="1.0" standalone="no"?>
<!DOCTYPE svg PUBLIC "-//W3C//DTD SVG 20010904//EN"
 "http://www.w3.org/TR/2001/REC-SVG-20010904/DTD/svg10.dtd">
<svg version="1.0" xmlns="http://www.w3.org/2000/svg"
 width="406.000000pt" height="407.000000pt" viewBox="0 0 406.000000 407.000000"
 preserveAspectRatio="xMidYMid meet">

<g transform="translate(0.000000,407.000000) scale(0.100000,-0.100000)"
fill="#000000" stroke="none">
<path d="M1727 4020 c-13 -16 -29 -20 -79 -20 -47 0 -90 -10 -173 -39 -60 -22
-126 -45 -145 -51 -19 -7 -39 -17 -44 -21 -6 -5 -19 -9 -31 -9 -11 0 -36 -9
-55 -20 -19 -11 -60 -32 -90 -46 -57 -27 -74 -36 -205 -124 -103 -69 -145
-104 -264 -220 -104 -101 -197 -208 -239 -274 -14 -23 -47 -73 -74 -113 -26
-39 -48 -74 -48 -77 0 -2 -26 -60 -58 -128 -33 -68 -67 -152 -76 -188 -10 -36
-24 -80 -32 -98 -8 -18 -14 -40 -14 -48 0 -8 -6 -36 -14 -62 -8 -26 -19 -76
-25 -112 -6 -36 -16 -85 -21 -110 -5 -25 -9 -121 -9 -215 -1 -137 3 -186 19
-253 11 -46 20 -95 20 -110 1 -31 23 -116 90 -335 6 -22 36 -87 66 -145 29
-59 54 -111 54 -115 0 -5 22 -41 48 -80 27 -40 61 -90 75 -112 63 -94 108
-147 217 -255 131 -131 210 -199 259 -225 19 -9 43 -26 54 -36 25 -23 144 -94
174 -103 12 -4 37 -17 55 -30 19 -13 45 -26 59 -29 33 -7 102 -33 163 -61 86
-38 223 -70 368 -86 48 -5 101 -16 117 -25 42 -21 307 -22 337 -1 11 8 49 17
85 21 190 18 325 54 527 141 18 8 38 14 44 14 6 0 33 13 60 30 26 16 54 30 62
30 7 0 19 7 26 15 7 8 19 15 27 15 8 0 40 20 71 44 31 23 71 50 87 59 41 21
99 71 244 212 136 133 200 208 282 335 76 117 181 334 218 455 53 171 60 197
76 302 18 120 21 514 4 608 -5 33 -14 87 -19 120 -4 33 -13 74 -18 90 -6 17
-27 84 -48 150 -46 146 -147 349 -231 468 -18 25 -33 49 -33 53 0 22 -270 306
-364 383 -100 81 -253 183 -316 210 -29 13 -70 33 -90 45 -19 12 -64 33 -100
46 -36 13 -69 26 -75 30 -31 22 -247 80 -298 80 -45 0 -61 4 -74 20 -17 19
-30 20 -313 20 -283 0 -296 -1 -313 -20z m568 -314 c165 -24 217 -34 229 -46
5 -5 17 -10 26 -10 8 0 32 -9 53 -20 20 -11 43 -20 51 -20 8 0 27 -6 43 -14
15 -8 51 -25 78 -39 131 -64 206 -111 298 -186 37 -31 90 -74 117 -96 26 -22
58 -53 71 -70 12 -16 41 -50 64 -75 40 -42 165 -220 165 -234 0 -4 20 -41 45
-84 42 -72 96 -203 115 -278 4 -18 10 -37 14 -43 4 -6 11 -32 16 -59 5 -26 14
-67 19 -92 14 -59 14 -522 0 -580 -6 -25 -14 -69 -19 -98 -5 -29 -13 -58 -18
-65 -5 -7 -12 -23 -15 -37 -32 -151 -212 -479 -331 -603 -22 -24 -55 -59 -72
-78 -133 -148 -342 -289 -572 -385 -127 -54 -157 -64 -214 -74 -27 -5 -53 -12
-59 -16 -21 -12 -215 -28 -359 -28 -157 0 -328 15 -373 33 -16 6 -43 11 -61
11 -19 0 -39 7 -46 15 -7 8 -23 15 -35 15 -13 0 -36 6 -52 14 -15 7 -45 21
-66 30 -102 43 -188 84 -197 95 -3 3 -23 15 -45 26 -22 11 -82 52 -135 92
-196 147 -351 325 -460 528 -18 33 -44 80 -57 105 -35 65 -110 294 -130 397
-36 183 -18 648 27 733 5 10 10 26 10 35 0 9 6 31 13 48 8 18 22 59 32 92 10
33 22 65 26 70 5 6 31 56 60 110 29 55 76 136 105 180 54 82 270 312 334 355
19 13 55 40 80 61 25 20 52 39 60 43 8 3 42 22 75 41 64 38 113 61 185 90 25
10 64 27 87 37 23 10 48 18 55 18 8 0 19 5 24 10 13 13 86 27 233 45 62 8 116
17 120 20 10 11 271 -2 386 -19z"/>
<path d="M2020 3281 c-8 -5 -32 -11 -52 -15 -114 -20 -271 -138 -342 -256 -56
-93 -84 -251 -67 -378 19 -138 54 -230 127 -335 52 -72 42 -89 -34 -60 -35 13
-74 18 -157 18 -118 0 -188 -16 -268 -61 -23 -13 -58 -32 -78 -43 -50 -28
-149 -138 -182 -203 -50 -99 -76 -259 -57 -346 34 -159 67 -228 149 -316 41
-43 135 -116 151 -116 5 0 27 -9 47 -20 21 -11 45 -20 53 -20 9 0 22 -6 29
-12 16 -17 278 -18 312 -1 13 7 49 22 79 34 150 61 284 206 314 342 8 35 34
35 42 0 10 -39 -21 -281 -46 -360 -17 -52 -71 -162 -87 -175 -7 -6 -13 -17
-13 -24 0 -11 31 -14 160 -14 109 0 160 3 160 11 0 6 -6 23 -14 37 -28 56 -56
120 -56 131 0 6 -4 19 -10 29 -30 54 -54 382 -27 382 6 0 32 -42 56 -93 37
-75 59 -106 123 -170 42 -42 83 -77 89 -77 7 0 33 -13 59 -29 25 -16 62 -32
81 -36 19 -4 40 -12 47 -18 7 -6 66 -10 140 -10 97 1 134 4 157 17 17 9 36 16
42 16 15 0 113 52 157 83 85 60 168 175 209 292 30 86 30 256 0 340 -40 110
-88 187 -157 247 -62 56 -185 128 -216 128 -9 0 -21 5 -28 12 -21 21 -252 24
-311 4 -27 -9 -52 -16 -55 -16 -18 0 0 40 48 108 53 76 96 159 96 184 0 7 7
33 16 58 11 31 16 81 16 162 0 193 -40 288 -176 420 -61 60 -88 77 -181 119
-67 30 -309 51 -345 30z m152 -993 l3 -173 165 -5 165 -5 -2 -35 c-1 -19 -2
-38 -2 -42 -1 -4 -74 -9 -163 -10 l-163 -3 -5 -170 -5 -170 -40 0 -40 0 -5
170 -5 170 -154 3 c-85 1 -160 7 -167 13 -6 5 -11 24 -10 42 l2 32 144 2 c212
4 190 -17 190 183 l0 170 45 0 45 0 2 -172z"/>
</g>
</svg>
